<?xml version="1.0" encoding="utf-8"?>
<!-- Generator: Adobe Illustrator 24.0.2, SVG Export Plug-In . SVG Version: 6.00 Build 0)  -->
<svg version="1.1" id="Layer_1" xmlns="http://www.w3.org/2000/svg" xmlns:xlink="http://www.w3.org/1999/xlink" x="0px" y="0px"
	 viewBox="0 0 100 100" style="enable-background:new 0 0 100 100;" xml:space="preserve">
<style type="text/css">
	.st0{clip-path:url(#SVGID_2_);}
	.st1{clip-path:url(#SVGID_4_);}
</style>
<g>
	<g>
		<defs>
			<rect id="SVGID_1_" x="-10.68" y="-11.68" width="123.37" height="123.37"/>
		</defs>
		<clipPath id="SVGID_2_">
			<use xlink:href="#SVGID_1_"  style="overflow:visible;"/>
		</clipPath>
		<g class="st0">
			<defs>
				<rect id="SVGID_3_" x="-10.68" y="-11.68" width="123.37" height="123.37"/>
			</defs>
			<clipPath id="SVGID_4_">
				<use xlink:href="#SVGID_3_"  style="overflow:visible;"/>
			</clipPath>
			<path class="st1" d="M30.98,43.57c0,0,0.3,0.21,0.9,0.58c0.6,0.37,1.51,0.9,2.76,1.46c1.24,0.56,2.83,1.14,4.77,1.53
				c1.93,0.38,4.2,0.54,6.72,0.3c2.51-0.25,5.24-0.9,7.99-2.19c2.75-1.25,5.49-3.11,7.68-5.78c1.09-1.31,2-2.87,2.79-4.52
				c0.78-1.66,1.4-3.45,1.72-5.32c0.32-1.87,0.33-3.83-0.14-5.71c-0.12-0.47-0.26-0.94-0.44-1.39c-0.17-0.47-0.38-0.93-0.6-1.38
				c-0.45-0.9-0.98-1.76-1.62-2.51c-0.64-0.74-1.39-1.37-2.22-1.76c-0.21-0.1-0.43-0.16-0.64-0.25l-0.62-0.14l-0.42-0.05
				c-0.12-0.01-0.2,0-0.31,0c-0.09-0.01-0.22,0.01-0.33,0.02c-0.11,0-0.23,0.02-0.35,0.04c-0.92,0.13-1.86,0.53-2.73,1.08
				c-0.22,0.14-0.42,0.28-0.64,0.45l-0.31,0.25c-0.13,0.1-0.19,0.16-0.28,0.24c-0.35,0.32-0.7,0.71-1,1.12
				c-0.61,0.83-1.03,1.77-1.38,2.84l-0.12,0.4c-0.05,0.15-0.07,0.27-0.1,0.39c-0.06,0.23-0.11,0.51-0.16,0.77
				c-0.09,0.53-0.13,1.07-0.13,1.61c-0.01,1.09,0.16,2.18,0.45,3.32c0.27,1.09,0.69,2.13,1.25,3.13c0.56,1,1.26,1.98,2.01,2.98
				c0.76,0.99,1.55,2.01,2.35,3.02c1.58,2.02,3.21,4.04,4.9,6.05c0.42,0.51,0.85,1.01,1.28,1.55c0.43,0.54,0.87,1.12,1.27,1.71
				c0.2,0.3,0.39,0.6,0.57,0.9l0.52,0.86c0.35,0.58,0.7,1.17,1.05,1.78c1.37,2.41,2.6,5.13,3.1,8.1c0.13,0.74,0.21,1.49,0.26,2.24
				l0.01,0.14c0,0.07,0.01,0.04,0.01,0.19l0,0.26l0.01,0.52c0.01,0.33-0.01,0.73-0.03,1.12l-0.03,0.59l-0.06,0.56
				c-0.04,0.37-0.07,0.75-0.15,1.12c-0.07,0.37-0.12,0.74-0.2,1.11l-0.26,1.1c-0.79,2.9-2.09,5.69-3.96,8.12
				c-0.93,1.21-1.97,2.36-3.15,3.36c-0.28,0.26-0.59,0.5-0.9,0.73l-0.46,0.36l-0.12,0.09c-0.19,0.13-0.12,0.08-0.19,0.13l-0.22,0.15
				l-0.9,0.58c-0.15,0.1-0.29,0.19-0.46,0.29l-0.54,0.28l-1.09,0.56c-0.36,0.19-0.73,0.3-1.09,0.46c-0.37,0.14-0.72,0.3-1.1,0.41
				l-1.13,0.33c-0.19,0.05-0.37,0.12-0.57,0.16l-0.57,0.12c-0.38,0.08-0.77,0.16-1.15,0.23l-1.16,0.15
				c-0.19,0.02-0.39,0.05-0.58,0.07l-0.58,0.03c-1.55,0.12-3.11,0.03-4.64-0.14c-1.53-0.17-3.05-0.47-4.53-0.87
				c-0.73-0.2-1.48-0.42-2.18-0.66l-0.13-0.04l-0.18-0.06l-0.26-0.09l-0.51-0.19l-0.51-0.19l-0.55-0.23
				c-0.37-0.16-0.75-0.31-1.1-0.48l-1.05-0.52c-0.68-0.37-1.37-0.74-2.02-1.17c-1.32-0.83-2.57-1.77-3.74-2.8
				c-1.17-1.04-2.26-2.16-3.25-3.41l-0.18-0.24l-0.09-0.12l-0.11-0.15l-0.32-0.45l-0.32-0.45c-0.11-0.16-0.22-0.34-0.33-0.51
				c-0.22-0.34-0.45-0.69-0.63-1.03c-0.19-0.34-0.4-0.68-0.57-1.03c-0.73-1.39-1.33-2.85-1.81-4.35c-0.48-1.5-0.81-3.03-1.03-4.58
				c-0.05-0.38-0.1-0.77-0.14-1.15l-0.11-1.12c-0.07-0.76-0.13-1.53-0.15-2.32c-0.04-1.57,0.07-3.18,0.36-4.75
				c0.29-1.58,0.79-3.12,1.43-4.58c1.31-2.88,3.14-5.5,5.53-7.64c0.58-0.55,1.23-1.02,1.87-1.5l1.01-0.65l0.25-0.16l0.27-0.14
				l0.53-0.28c0.7-0.4,1.46-0.67,2.19-0.98c0.38-0.13,0.76-0.24,1.14-0.36c0.38-0.12,0.77-0.24,1.14-0.31
				c1.58-0.34,3.12-0.5,4.71-0.48c1.57,0.02,3.15,0.22,4.69,0.64c1.53,0.42,3.02,1.03,4.37,1.88c0.35,0.19,0.66,0.44,0.99,0.66
				l0.5,0.35l0.21,0.17l0.24,0.2c0.61,0.51,1.16,1.04,1.7,1.59c1.06,1.12,2,2.35,2.78,3.71c0.77,1.36,1.38,2.84,1.68,4.41
				c0.05,0.19,0.08,0.39,0.1,0.59l0.08,0.59c0.02,0.2,0.06,0.39,0.06,0.59l0.01,0.6c0,0.4,0.03,0.8-0.03,1.19l-0.06,0.59l-0.03,0.3
				l-0.02,0.15c-0.01,0.08,0.01,0.03-0.03,0.22l-0.22,1.01c-0.11,0.4-0.24,0.8-0.36,1.2c-0.14,0.37-0.29,0.73-0.44,1.09
				c-0.18,0.35-0.35,0.7-0.54,1.04c-0.77,1.35-1.75,2.55-2.85,3.58c-0.56,0.51-1.13,0.99-1.75,1.42c-0.31,0.22-0.62,0.43-0.95,0.62
				l-0.25,0.15c-0.03,0.02-0.2,0.11-0.18,0.1l-0.11,0.06l-0.45,0.23c-2.76,1.34-5.77,1.77-8.68,1.43c-1.45-0.17-2.88-0.55-4.24-1.16
				c-0.67-0.31-1.33-0.67-1.94-1.11c-0.3-0.23-0.61-0.44-0.89-0.72l-0.42-0.39c-0.08-0.08-0.11-0.12-0.18-0.19l-0.19-0.21
				c-0.51-0.56-0.97-1.21-1.32-1.94c-0.35-0.73-0.58-1.54-0.63-2.37c0-0.01-0.01-0.16-0.01-0.18l0-0.12l0-0.12l0-0.17
				c0-0.23,0.02-0.42,0.04-0.62c0.04-0.39,0.12-0.78,0.23-1.17c0.22-0.76,0.57-1.52,1.12-2.19c0.27-0.34,0.6-0.64,0.96-0.89
				l0.14-0.09c0.08-0.05,0.01-0.02,0.22-0.14l0.21-0.11c0.08-0.04,0.12-0.07,0.22-0.11c0.12-0.05,0.24-0.09,0.36-0.14
				c0.12-0.04,0.25-0.09,0.36-0.11L35,50.49c0.21-0.05,0.42-0.06,0.63-0.08c0.42-0.03,0.83,0,1.22,0.06
				c0.78,0.12,1.49,0.37,2.14,0.67c0.65,0.31,1.25,0.68,1.81,1.12c0.28,0.21,0.55,0.45,0.81,0.7c0,0,0.11,0.11,0.12,0.12l0.08,0.08
				l0.15,0.17l0.08,0.09l0.09,0.11l0.19,0.23c0.46,0.59,0.81,1.2,1.09,1.84c0.28,0.64,0.49,1.29,0.63,1.94
				c0.15,0.64,0.23,1.32,0.29,1.87c0.28,2.3,0.71,4.54,1.23,6.73c0.53,2.18,1.14,4.3,1.87,6.32c0.37,1,0.76,1.99,1.21,2.9
				c0.22,0.45,0.46,0.9,0.71,1.27c0.12,0.18,0.26,0.36,0.36,0.46c0.03,0.03,0.05,0.06,0.06,0.06c0.01,0,0.01,0.01,0.02,0.02
				c0.01,0.01,0.01,0.01,0,0c-0.01-0.01-0.02-0.01-0.03-0.01c0,0.01-0.02,0-0.07-0.02c-0.03-0.01-0.07-0.01-0.11,0
				c-0.24,0.03,0.01,0-0.05,0c-0.08,0-0.22,0.07-0.24,0.08c-0.04,0.02-0.07,0.05-0.09,0.06l-0.04,0.04c-0.01,0.01-0.01,0.01,0,0.01
				c0.01-0.01,0.05-0.08,0.08-0.17c0.07-0.18,0.14-0.41,0.21-0.64c0.14-0.5,0.27-0.99,0.41-1.48c0.27-1,0.57-1.99,0.9-2.96
				c0.33-0.97,0.68-1.9,1.05-2.83c0.37-0.9,0.77-1.81,1.17-2.68c0.82-1.74,1.71-3.37,2.58-4.94c0.87-1.56,1.76-3.06,2.66-4.48
				c0.45-0.71,0.9-1.4,1.35-2.07c0.23-0.33,0.46-0.66,0.69-0.99c0.12-0.17,0.24-0.33,0.36-0.5c0.12-0.15,0.24-0.3,0.36-0.46
				c0.24-0.3,0.48-0.6,0.71-0.9c0.25-0.29,0.51-0.58,0.76-0.86c0.5-0.58,1.02-1.09,1.53-1.59c1.02-1,2.06-1.89,3.06-2.7
				c2.01-1.62,3.91-2.91,5.6-3.97c1.69-1.06,3.17-1.89,4.38-2.55c1.21-0.65,2.15-1.12,2.79-1.43c0.64-0.31,0.97-0.47,0.97-0.47
				s-0.32,0.17-0.94,0.51c-0.62,0.34-1.54,0.86-2.71,1.56c-1.17,0.71-2.6,1.61-4.23,2.74c-1.62,1.14-3.45,2.5-5.37,4.17
				c-0.95,0.84-1.93,1.75-2.89,2.77c-0.48,0.51-0.97,1.03-1.42,1.59c-0.23,0.28-0.47,0.55-0.69,0.85c-0.22,0.31-0.45,0.61-0.67,0.93
				c-0.11,0.16-0.23,0.31-0.34,0.47c-0.1,0.15-0.21,0.31-0.31,0.47c-0.21,0.33-0.42,0.66-0.63,1c-0.42,0.67-0.84,1.37-1.26,2.08
				c-0.84,1.43-1.66,2.92-2.48,4.5c-0.81,1.58-1.63,3.21-2.37,4.92c-0.37,0.86-0.72,1.72-1.05,2.64c-0.33,0.89-0.64,1.82-0.92,2.75
				c-0.28,0.94-0.54,1.9-0.78,2.88c-0.12,0.5-0.25,1.01-0.37,1.52c-0.07,0.26-0.14,0.53-0.26,0.84c-0.06,0.15-0.13,0.32-0.26,0.53
				c-0.03,0.05-0.07,0.1-0.12,0.17c-0.04,0.06-0.1,0.12-0.17,0.18c-0.06,0.06-0.15,0.12-0.25,0.18c-0.07,0.05-0.27,0.13-0.42,0.16
				c-0.12,0.02,0.06,0.01-0.24,0.03c-0.1,0-0.2-0.01-0.3-0.03c-0.11-0.02-0.19-0.04-0.25-0.07c-0.07-0.03-0.14-0.06-0.21-0.09
				c-0.07-0.03-0.12-0.07-0.17-0.1l-0.14-0.1c-0.1-0.07-0.16-0.13-0.23-0.2c-0.29-0.26-0.46-0.51-0.65-0.76
				c-0.35-0.5-0.63-0.99-0.9-1.5c-0.53-1-0.96-2.03-1.38-3.08c-0.82-2.09-1.51-4.26-2.12-6.51c-0.6-2.24-1.11-4.57-1.46-6.95
				c-0.09-0.62-0.17-1.12-0.3-1.64c-0.13-0.51-0.29-1-0.5-1.46c-0.21-0.45-0.48-0.89-0.77-1.25l-0.1-0.12l-0.05-0.06l-0.08-0.08
				l-0.16-0.16L39.8,54.9c-0.03-0.04,0.01,0.02-0.04-0.03c-0.18-0.17-0.37-0.33-0.58-0.48c-0.82-0.61-1.82-1.08-2.72-1.2
				c-0.22-0.03-0.44-0.04-0.64-0.02c-0.1,0.01-0.2,0.01-0.29,0.04l-0.14,0.03c-0.05,0.01-0.06,0.02-0.09,0.03
				c-0.4,0.15-0.67,0.34-0.92,0.65c-0.49,0.61-0.77,1.66-0.69,2.57c0.07,0.89,0.52,1.75,1.25,2.52c1.45,1.57,3.69,2.45,6.03,2.69
				c2.33,0.23,4.8-0.19,6.88-1.22l0.45-0.23l0.11-0.06c0.09-0.05,0,0,0.04-0.02l0.18-0.11c0.25-0.15,0.49-0.32,0.74-0.49
				c0.49-0.35,0.95-0.75,1.39-1.16c0.87-0.84,1.63-1.79,2.2-2.83c0.14-0.26,0.26-0.53,0.4-0.79l0.32-0.82
				c0.07-0.26,0.15-0.51,0.23-0.78l0.2-1.02c-0.02,0.11,0-0.03,0-0.04l0.01-0.11l0.02-0.22l0.04-0.44c0.05-0.29,0.02-0.59,0.01-0.88
				l-0.01-0.44c0-0.15-0.04-0.29-0.05-0.44l-0.06-0.44c-0.02-0.15-0.03-0.29-0.08-0.44c-0.49-2.33-1.87-4.54-3.65-6.38
				c-0.45-0.45-0.93-0.9-1.41-1.29l-0.17-0.14l-0.21-0.16l-0.38-0.25c-0.26-0.17-0.51-0.37-0.78-0.51
				c-1.07-0.66-2.24-1.12-3.46-1.44c-1.22-0.32-2.5-0.49-3.79-0.5c-1.29-0.02-2.62,0.13-3.85,0.4c-0.33,0.07-0.63,0.16-0.94,0.26
				c-0.31,0.1-0.62,0.19-0.92,0.29c-0.59,0.26-1.2,0.46-1.75,0.79l-0.43,0.23l-0.21,0.11l-0.2,0.13l-0.81,0.53
				c-0.51,0.39-1.04,0.77-1.52,1.22c-1.94,1.74-3.51,4-4.6,6.41c-1.07,2.41-1.54,5.03-1.44,7.73c0.02,0.68,0.07,1.36,0.14,2.06
				l0.11,1.06c0.04,0.35,0.08,0.69,0.13,1.03c0.2,1.35,0.49,2.68,0.9,3.97c0.41,1.29,0.92,2.55,1.54,3.75c0.31,0.6,0.65,1.2,1,1.73
				c0.09,0.14,0.17,0.27,0.26,0.41l0.32,0.45l0.32,0.45c0.05,0.07,0.02,0.03,0.05,0.07l0.07,0.1l0.15,0.2
				c0.82,1.04,1.77,2.03,2.78,2.94c1.01,0.9,2.1,1.73,3.24,2.45c0.57,0.37,1.16,0.7,1.75,1.02l0.91,0.45c0.3,0.15,0.6,0.26,0.9,0.4
				l0.45,0.2l0.51,0.19l0.51,0.19l0.26,0.09c0.09,0.03,0.03,0.01,0.08,0.03l0.13,0.04c0.67,0.23,1.32,0.42,1.98,0.61
				c1.32,0.36,2.65,0.63,3.99,0.78c1.34,0.15,2.68,0.23,4,0.13l0.5-0.02c0.16-0.01,0.33-0.04,0.49-0.06l0.98-0.12l0.96-0.19
				l0.48-0.1c0.16-0.03,0.31-0.09,0.47-0.13l0.94-0.27c0.31-0.09,0.61-0.23,0.91-0.34c0.29-0.12,0.62-0.22,0.89-0.36l0.82-0.41
				l0.41-0.2c0.14-0.08,0.3-0.19,0.45-0.28l0.9-0.57l0.23-0.14c0,0,0.15-0.1,0.04-0.02l0.1-0.07l0.39-0.29
				c0.26-0.2,0.52-0.38,0.76-0.6c1-0.82,1.88-1.78,2.68-2.79c1.6-2.03,2.75-4.41,3.45-6.87l0.23-0.93c0.08-0.31,0.12-0.63,0.18-0.94
				c0.07-0.31,0.09-0.63,0.14-0.94l0.06-0.47l0.03-0.45c0.02-0.3,0.05-0.58,0.04-0.95l0-0.52v-0.26l-0.01-0.18
				c-0.03-0.62-0.09-1.25-0.19-1.86c-0.38-2.46-1.39-4.8-2.65-7.08c-0.32-0.57-0.64-1.14-0.98-1.71l-0.51-0.86
				c-0.16-0.27-0.32-0.54-0.49-0.8c-0.33-0.52-0.69-1.01-1.08-1.51c-0.39-0.5-0.8-1.02-1.22-1.53c-1.67-2.06-3.28-4.14-4.84-6.21
				c-0.78-1.04-1.55-2.05-2.32-3.1c-0.76-1.05-1.53-2.15-2.17-3.35c-0.64-1.21-1.14-2.51-1.44-3.83c-0.3-1.27-0.49-2.64-0.46-3.99
				c0.02-0.68,0.08-1.35,0.2-2.02c0.07-0.33,0.13-0.65,0.23-1c0.05-0.17,0.09-0.35,0.14-0.48l0.15-0.46c0.4-1.2,1-2.46,1.83-3.52
				c0.41-0.54,0.86-1.02,1.39-1.47c0.53-0.46,1.01-0.79,1.58-1.14c1.11-0.66,2.35-1.17,3.7-1.33c0.17-0.02,0.33-0.04,0.5-0.04
				c0.17,0,0.33-0.02,0.52-0.01c0.18,0.01,0.38,0.02,0.54,0.03l0.42,0.06c-0.01,0,0.13,0.02,0.17,0.03l0.12,0.03l0.25,0.06
				c0.16,0.04,0.33,0.08,0.49,0.13c0.31,0.13,0.63,0.23,0.92,0.38c1.19,0.59,2.14,1.46,2.91,2.4c0.76,0.94,1.35,1.96,1.83,3
				c0.24,0.52,0.45,1.04,0.63,1.57c0.19,0.54,0.35,1.09,0.47,1.64c0.49,2.21,0.41,4.45-0.02,6.5c-0.42,2.06-1.16,3.96-2.05,5.7
				c-0.44,0.87-0.93,1.7-1.45,2.49c-0.26,0.4-0.53,0.78-0.81,1.16c-0.29,0.38-0.59,0.73-0.89,1.08c-2.44,2.78-5.43,4.67-8.34,5.85
				c-2.9,1.23-5.78,1.79-8.37,1.94c-2.6,0.14-4.92-0.12-6.87-0.61c-1.95-0.49-3.53-1.16-4.76-1.78c-1.23-0.62-2.11-1.2-2.7-1.6
				C31.27,43.8,30.98,43.57,30.98,43.57"/>
		</g>
	</g>
</g>
</svg>
